<?xml version="1.0" encoding="UTF-8"?>
<svg width="167px" height="248px" viewBox="0 0 167 248" version="1.1" xmlns="http://www.w3.org/2000/svg" xmlns:xlink="http://www.w3.org/1999/xlink">
    <title>Book 1</title>
    <defs>
        <polygon id="path-1" points="0.668438 0.715362343 60.95852 0.715362343 60.95852 152.115371 0.668438 152.115371"></polygon>
        <polygon id="path-3" points="0 0.103979415 155.648294 0.103979415 155.648294 194 0 194"></polygon>
    </defs>
    <g id="Book-1" stroke="none" stroke-width="1" fill="none" fill-rule="evenodd">
        <g id="Group-11" transform="translate(0.288991, 0.000000)">
            <path d="M3.71100917,93.9013144 C6.60591344,81.8955256 17.9131669,73.7404929 29.4356946,69.3171823 C40.9570329,64.8914909 53.4191557,63.0726484 64.6050943,57.8541894 C86.1705849,47.7934193 100.93531,24.5972259 100.931742,0.784435339 C102.18176,3.27225 103.048804,4.38641005 104.298823,6.87422471 C105.491752,4.81493315 107.433978,2.3640191 107.706341,0 C108.035794,26.9112506 90.8935368,52.9356965 66.3629696,63.9630242 C56.7588809,68.2803944 46.2913163,70.3658735 36.5694808,74.4118458 C26.8476454,78.4590084 17.429097,85.1070681 13.8027358,95 C10.8138721,94.0120162 6.69987294,94.8904885 3.71100917,93.9013144" id="Fill-1" fill="#D38A19"></path>
            <g id="Group-5" transform="translate(105.711009, 52.000000)">
                <mask id="mask-2" fill="white">
                    <use xlink:href="#path-1"></use>
                </mask>
                <g id="Clip-4"></g>
                <path d="M0.668438,1.76335512 C0.668438,1.76335512 13.979858,0.0333708661 15.036378,1.01883543 C16.094118,2.0043 59.234538,131.039922 60.859578,139.789835 C62.483398,148.540954 43.742978,152.115371 43.742978,152.115371 L0.668438,1.76335512 Z" id="Fill-3" fill="#DDAB8A" mask="url(#mask-2)"></path>
            </g>
            <path d="M107.711009,56 L118.472166,56.3754267 C118.472166,56.3754267 156.264017,162.443089 163.711009,191.63492 C163.711009,191.63492 162.186049,198.77284 156.068921,203 L107.711009,56 Z" id="Fill-6" fill="#FFFFFF"></path>
            <g id="Group-10" transform="translate(0.711009, 53.000000)">
                <mask id="mask-4" fill="white">
                    <use xlink:href="#path-3"></use>
                </mask>
                <g id="Clip-9"></g>
                <path d="M0.17910229,46.2701534 L35.5994382,185.790859 C35.979316,187.289847 36.937942,188.574693 38.275255,189.343926 C41.6107969,191.261626 48.3247511,194.564663 54.0645985,193.917454 C54.0645985,193.917454 128.480171,185.33865 154.485728,150.603528 C155.526522,149.213405 155.896873,147.436871 155.48127,145.747669 C152.331499,132.924325 137.211408,73.6371472 110.491347,3.79006135 C109.468415,1.11868098 106.643744,-0.393466258 103.869087,0.252546012 C87.1866137,4.13699387 31.5327206,18.2834663 2.27259847,40.2562577 C0.424415267,41.6439877 -0.391309924,44.0246626 0.17910229,46.2701534" id="Fill-8" fill="#DDAB8A" mask="url(#mask-4)"></path>
            </g>
        </g>
    </g>
</svg>