<?xml version="1.0" encoding="UTF-8"?>
<svg width="1920px" height="586px" viewBox="0 0 1920 586" version="1.1" xmlns="http://www.w3.org/2000/svg" xmlns:xlink="http://www.w3.org/1999/xlink">
    <title>Footer</title>
    <defs>
        <rect id="path-1" x="4.85316478e-12" y="0" width="1921" height="507"></rect>
        <polygon id="path-3" points="0 0 372.966967 0 372.966967 292.773821 0 292.773821"></polygon>
        <polygon id="path-5" points="0 0 214.778348 0 214.778348 185.455263 0 185.455263"></polygon>
    </defs>
    <g id="Footer" stroke="none" stroke-width="1" fill="none" fill-rule="evenodd">
        <g id="Form" transform="translate(-0.000000, 79.000000)">
            <mask id="mask-2" fill="white">
                <use xlink:href="#path-1"></use>
            </mask>
            <g id="Mask"></g>
            <path d="M-43.6181509,86.8691696 C26.0687318,54.6537608 139.855235,-21.8544433 312.064731,6.48722523 C484.274228,34.8288937 628.361014,228.485526 712.404764,184.93654 C796.448514,141.387554 1069.92421,278.327294 1124.61935,226.262766 C1179.31449,174.198238 1393.11102,22.2404804 1630.95032,70.7614652 C1868.78963,119.28245 1730.07012,485.744931 1939.70755,513.22635 C2079.46583,531.547295 1800.05831,555.558555 1101.48497,585.260129 L133.12569,662.07537 L-118.728472,394.154608 C-115.112846,210.774588 -90.0760726,108.346109 -43.6181509,86.8691696 Z" fill="#FFF9F1" mask="url(#mask-2)"></path>
        </g>
        <g id="Group-3" transform="translate(1490.143207, 179.065789)">
            <mask id="mask-4" fill="white">
                <use xlink:href="#path-3"></use>
            </mask>
            <g id="Clip-2"></g>
            <path d="M56.6865428,223.321225 C56.6865428,223.321225 -29.5396268,175.028141 10.6986298,109.487717 C10.6986298,109.487717 42.8900355,69.2425911 77.3813038,58.8944542 C77.3813038,58.8944542 58.9864054,156.630712 77.3813038,158.929557 C95.7762022,161.229736 90.0278798,48.5449832 90.0278798,48.5449832 C90.0278798,48.5449832 180.852441,4.85092263 216.492306,8.30119105 C216.492306,8.30119105 160.15768,103.73727 178.553912,101.437091 C196.94881,99.1382463 260.181691,2.55074368 260.181691,2.55074368 C260.181691,2.55074368 353.306114,-14.6965958 368.251218,40.4970253 C383.197657,95.6893121 359.054436,123.284788 345.257929,126.733723 C331.461422,130.182657 242.935389,129.033902 245.235252,140.532128 C247.535114,152.030354 307.318201,170.427783 340.659538,160.080981 C340.659538,160.080981 303.869741,250.918036 255.581965,246.317678 C207.295524,241.718654 192.349085,211.822999 162.457542,209.52282 C132.565999,207.223975 110.721307,215.273267 125.667745,223.321225 C140.614184,231.369183 191.200488,225.958959 215.343709,246.487123 C239.48693,267.015286 259.031759,279.663602 214.193777,288.862983 C169.355796,298.062365 88.8779485,292.311917 72.7815786,257.815904 L56.6865428,223.321225 Z" id="Fill-1" fill="#FFF3E0" mask="url(#mask-4)"></path>
        </g>
        <g id="Group-3" transform="translate(1388.112010, 414.114467) rotate(-96.000000) translate(-1388.112010, -414.114467) translate(1280.612010, 321.114467)">
            <mask id="mask-6" fill="white">
                <use xlink:href="#path-5"></use>
            </mask>
            <g id="Clip-2"></g>
            <path d="M32.6438006,141.461057 C32.6438006,141.461057 -17.0107565,110.870257 6.16101163,69.3542921 C6.16101163,69.3542921 24.6988871,43.8613953 44.5611708,37.3064653 C44.5611708,37.3064653 33.9682089,99.2165788 44.5611708,100.67276 C55.1541328,102.129787 51.8438802,30.7506902 51.8438802,30.7506902 C51.8438802,30.7506902 104.146486,3.07309846 124.670205,5.25863854 C124.670205,5.25863854 92.2291154,65.7117253 102.822846,64.2546985 C113.415807,62.798517 149.829354,1.61607173 149.829354,1.61607173 C149.829354,1.61607173 203.456368,-9.30909326 212.062717,25.652787 C220.669835,60.613822 206.766621,78.093917 198.821707,80.2786119 C190.876794,82.4633069 139.897828,81.7356386 141.222237,89.019082 C142.546645,96.3025253 176.973579,107.956204 196.173659,101.402119 C196.173659,101.402119 174.987735,158.941997 147.180538,156.027944 C119.374109,153.114736 110.766991,134.177614 93.5535237,132.720587 C76.3400566,131.264406 63.7604822,136.363154 72.3675999,141.461057 C80.9747175,146.55896 110.105555,143.131905 124.008769,156.135277 C137.911984,169.138649 149.16715,177.150606 123.346565,182.977867 C97.5259805,188.805129 51.181676,185.162562 41.9123542,163.311387 L32.6438006,141.461057 Z" id="Fill-1" fill="#FFF3E0" mask="url(#mask-6)"></path>
        </g>
    </g>
</svg>