<svg width="50px" height="50px" viewBox="0 0 50 50" version="1.1" xmlns="http://www.w3.org/2000/svg" xmlns:xlink="http://www.w3.org/1999/xlink"><defs><polygon id="path-1" points="0.932142832 0.111111111 42.9321428 0.111111111 42.9321428 49.1111111 0.932142832 49.1111111"></polygon></defs><g id="Heart-Green-50" stroke="none" stroke-width="1" fill="none" fill-rule="evenodd"><g id="Group-3-Copy" transform="translate(3.067857, -0.111111)"><mask id="mask-2" fill="white"><use xlink:href="#path-1"></use></mask><g id="Clip-2"></g><path d="M42.6789417,5.37346785 C42.1350762,2.92174086 40.2736878,0.567629252 37.6858248,0.173730594 C33.4786114,-0.466268796 29.4248329,3.93467223 27.8987681,7.20513098 C25.0159211,13.381022 25.1621525,19.7909836 23.6778681,26.2109131 C20.0555802,19.4053342 18.5723763,12.0656204 12.5156603,6.59915948 C8.09234147,2.60724063 2.01725648,0.835040382 1.0174085,8.21050059 C0.717021893,10.4271258 1.25764575,12.6643739 1.90055953,14.813287 C5.79766153,27.8411586 13.7182872,39.0988922 23.4930979,48.7861869 C23.6731858,48.9645756 23.9058594,49.157744 24.1587028,49.1010309 C24.3146589,49.0659718 24.4291948,48.9432652 24.5325652,48.8267454 C32.2727429,40.1248848 37.6454851,29.8309311 40.5254507,18.7649911 C41.6207452,14.5554999 43.6085554,9.88336688 42.7016328,5.48070727 C42.6944292,5.4449608 42.6865054,5.40921432 42.6789417,5.37346785" id="Fill-1" fill="#A5C81A" mask="url(#mask-2)"></path></g></g></svg>