<svg width="30px" height="30px" viewBox="0 0 30 30" version="1.1" xmlns="http://www.w3.org/2000/svg" xmlns:xlink="http://www.w3.org/1999/xlink"><defs><polygon id="path-1" points="0.363515381 0.111111111 25.3635154 0.111111111 25.3635154 29.1111111 0.363515381 29.1111111"></polygon></defs><g id="Heart-Orange" stroke="none" stroke-width="1" fill="none" fill-rule="evenodd"><g id="Group-3" transform="translate(1.636485, -0.111111)"><mask id="mask-2" fill="white"><use xlink:href="#path-1"></use></mask><g id="Clip-2"></g><path d="M25.2128004,3.22556714 C24.889071,1.77454505 23.7811017,0.381295317 22.240707,0.148171621 C19.7364133,-0.230603528 17.32345,2.37403504 16.4150781,4.30961266 C14.6990977,7.96473183 14.7861402,11.7583826 13.9026376,15.5579327 C11.7465138,11.5301411 10.8636544,7.18622887 7.25846625,3.95097647 C4.62553838,1.58841225 1.00941636,0.539559047 0.414268754,4.90462733 C0.235467203,6.21650753 0.557267116,7.54059317 0.939953889,8.81239887 C3.25965746,16.5227718 7.97431563,23.1855122 13.7926553,28.918809 C13.8998505,29.024386 14.0383466,29.1387102 14.1888487,29.1051453 C14.2816797,29.084396 14.3498558,29.0117737 14.4113859,28.942813 C19.0186344,23.7927323 22.2166953,17.7003923 23.9309605,11.1511625 C24.5829216,8.65983101 25.7661419,5.89469105 25.226307,3.28903537 C25.2220192,3.26787929 25.2173026,3.24672322 25.2128004,3.22556714" id="Fill-1" fill="#F3990D" mask="url(#mask-2)"></path></g></g></svg>