<?xml version="1.0" encoding="UTF-8"?>
<svg width="203px" height="219px" viewBox="0 0 203 219" version="1.1" xmlns="http://www.w3.org/2000/svg" xmlns:xlink="http://www.w3.org/1999/xlink">
    <title>Leaf 3</title>
    <defs>
        <polygon id="path-1" points="0 0.054 203 0.054 203 218.054 0 218.054"></polygon>
    </defs>
    <g id="Leaf-3" stroke="none" stroke-width="1" fill="none" fill-rule="evenodd">
        <g id="Group-8" transform="translate(0.000000, -0.054000)">
            <mask id="mask-2" fill="white">
                <use xlink:href="#path-1"></use>
            </mask>
            <g id="Clip-7"></g>
            <path d="M27.8691425,87.4087139 C31.0296189,84.442812 48.2171973,92.3611917 41.3011673,98.2989792 C34.3851374,104.240756 22.6627154,92.3013551 27.8691425,87.4087139 M30.2394998,120.865364 C34.6040621,114.793941 77.6645583,132.288175 75.294201,138.624873 C72.9238437,144.959577 26.684959,125.815847 30.2394998,120.865364 M51.7677577,151.948495 C51.0453063,146.393661 83.062047,150.867446 82.6978359,154.236248 C81.8679123,161.923259 53.1171299,162.30023 51.7677577,151.948495 M94.0281837,98.3249084 C87.3151567,94.7626348 100.297391,70.9137518 106.367575,79.0914235 C112.692509,87.6021857 100.749172,101.887182 94.0281837,98.3249084 M112.310386,76.3449225 C105.199314,68.4245483 117.154592,43.069777 124.066641,45.838218 C131.989725,49.0115536 119.419467,84.2613076 112.310386,76.3449225 M131.042378,126.260633 C129.46015,121.904527 158.601016,94.0924646 160.217078,99.4877334 C162.585445,107.408108 132.624607,130.616739 131.042378,126.260633 M116.420199,110.232396 C109.309127,105.87629 140.927823,63.3484082 145.003803,68.7995245 C148.560334,73.5525468 123.533261,114.588502 116.420199,110.232396 M82.1505242,78.1759232 C75.4355069,76.5922472 90.4417993,44.027163 97.2025917,47.2264277 C104.313664,50.5912404 88.8675317,79.7595991 82.1505242,78.1759232 M45.0567209,99.4877334 C48.0997741,91.3539419 85.8264688,109.663948 83.062047,114.811892 C80.2976253,119.959836 42.6843733,105.822437 45.0567209,99.4877334 M70.2688842,87.7916683 C65.1321149,92.9396124 42.361957,78.5788231 48.6829098,71.8491977 C55.0038627,65.1215668 76.5898371,81.4569646 70.2688842,87.7916683 M0.0259024387,112.745534 C0.0259024387,112.745534 -0.662715222,125.817842 5.0611703,136.410918 C10.787046,147.003995 30.8823423,138.866214 32.2018611,148.134907 C33.5233702,157.401605 11.6667253,149.650768 11.6667253,149.650768 C11.6667253,149.650768 18.7121198,171.273729 29.7220415,174.363293 C40.7299729,177.454852 51.646354,161.520359 60.4530972,168.58507 C69.2578502,175.647786 44.3641228,185.099978 44.3641228,185.099978 C44.3641228,185.099978 53.9390926,198.635022 68.4737018,199.077813 C83.0063207,199.518609 77.9352288,183.544226 86.741972,190.606941 C95.5487152,197.665668 78.601954,203.491761 78.601954,203.491761 C78.601954,203.491761 88.7302063,208.344511 98.4186189,203.930563 C108.105041,199.518609 116.563495,179.202081 116.563495,179.202081 C116.563495,179.202081 116.911784,173.483695 121.318141,190.692707 C123.706411,200.031209 120.436472,216.729616 120.436472,216.729616 L125.720518,218.054 C125.720518,218.054 127.921706,207.907703 126.162348,193.337486 C124.399009,178.777241 123.234728,176.05667 123.234728,176.05667 C123.234728,176.05667 134.967101,190.694702 159.188132,195.545457 C170.972251,197.910998 177.241458,182.307602 177.241458,182.307602 C177.241458,182.307602 147.740361,183.631986 149.5037,174.365288 C151.261068,165.098589 163.590509,172.600107 181.645825,173.483695 C199.701141,174.365288 196.180434,141.706459 196.180434,141.706459 C196.180434,141.706459 178.05546,153.137249 171.889745,146.95812 C165.72602,140.778992 188.25337,135.970122 198.381622,129.348202 C208.509875,122.728277 198.821462,102.872492 198.821462,102.872492 C198.821462,102.872492 173.105772,124.140422 169.141245,120.610061 C165.182688,117.077706 188.69321,98.8973454 196.620274,92.279415 C204.547338,85.6574955 187.813531,66.2405116 187.813531,66.2405116 C187.813531,66.2405116 171.871833,88.7969236 164.826438,84.8237719 C157.781044,80.8486256 174.162581,68.8872849 176.805599,54.7678366 C179.444637,40.6443993 160.509641,32.2592939 160.509641,32.2592939 C160.509641,32.2592939 159.556324,57.2011926 150.309741,58.0827855 C141.061168,58.9663729 151.370531,52.587789 154.787746,30.4941136 C156.797873,17.4816429 136.29259,12.3995191 136.29259,12.3995191 C136.29259,12.3995191 138.119616,26.8819762 127.551524,31.7367208 C116.981442,36.5954545 119.998623,16.8114727 120.876312,9.30995483 C121.755991,1.80444787 102.822986,0.482058524 102.822986,0.482058524 C102.822986,0.482058524 104.918692,33.3582932 96.5537786,32.9174968 C88.1848848,32.4747058 100.462579,21.0060199 94.4540918,4.89800123 C91.2358988,-3.73642333 79.9234631,1.80444787 79.9234631,1.80444787 C79.9234631,1.80444787 84.1487096,8.86716383 84.3258395,24.3149851 C84.3895267,29.7700905 85.109988,33.2665438 78.5024428,37.24169 C71.9008683,41.2168363 75.7579233,21.9055638 75.0792567,15.4870888 C73.3179081,-1.19536145 64.7997474,8.68765396 57.3145133,10.8956253 C49.8292791,13.1055912 44.5651354,7.2615478 40.7299729,13.7219084 C33.7721482,25.4458972 62.3657029,39.9602672 44.7581872,42.7466592 C37.3028064,43.9254407 24.8798254,29.1717242 24.8798254,29.1717242 C24.8798254,29.1717242 17.0224193,35.416673 18.1170427,42.4654271 C20.1649837,55.6613968 38.0252579,54.7638475 31.4177127,63.5897493 C24.8121578,72.415651 14.936664,56.5110769 14.936664,56.5110769 C14.936664,56.5110769 11.6667253,57.4146099 9.90537662,68.8872849 C8.14203775,80.3599599 20.4316737,79.3188026 18.4693124,81.6783601 C11.3303773,90.2609263 5.0611703,75.0664134 5.0611703,75.0664134 C5.0611703,75.0664134 0.658793814,81.6843438 0.658793814,93.6018043 C0.658793814,105.519265 19.2534609,102.912383 18.0772382,109.991055 C16.0491995,122.191742 0.0259024387,112.745534 0.0259024387,112.745534" id="Fill-6" fill="#EFF3DE" mask="url(#mask-2)"></path>
        </g>
    </g>
</svg>