<?xml version="1.0" encoding="UTF-8"?>
<svg width="156px" height="219px" viewBox="0 0 156 219" version="1.1" xmlns="http://www.w3.org/2000/svg" xmlns:xlink="http://www.w3.org/1999/xlink">
    <title>Leaf 4</title>
    <g id="Leaf-4" stroke="none" stroke-width="1" fill="none" fill-rule="evenodd">
        <path d="M45.6587256,179.234113 C50.8053695,179.93062 55.102444,180.99204 57.4066032,181.625085 C58.0036838,179.51335 58.6388759,177.314355 59.2931237,175.032857 C54.0353212,172.819582 37.123332,165.488009 30.6411968,160.063501 C22.9252009,153.604546 -0.4324,132.142917 -0.4324,132.142917 C-0.4324,132.142917 18.3359381,141.102318 28.136952,146.728321 C36.1975395,151.353193 54.3942048,165.548299 60.6159112,170.453995 C61.3177985,168.032878 62.0435055,165.52926 62.799384,162.954245 C56.4315834,159.082997 39.4052596,148.521153 32.5213653,142.146286 C23.9685039,134.22768 13.3306245,117.348086 13.3306245,117.348086 C13.3306245,117.348086 25.8439086,133.81041 34.1855686,137.35165 C42.5288166,140.89289 48.99666,142.560383 55.6677649,149.020925 C59.829861,153.049244 62.6961653,156.185907 64.2619138,157.977153 C65.1845303,154.837316 66.1404944,151.600699 67.136158,148.278407 C61.7052657,146.101623 45.949326,139.533194 39.608521,134.224506 C31.8925252,127.768724 7.70123464,108.17767 7.70123464,108.17767 C7.70123464,108.17767 22.2979487,116.722974 33.7711058,121.098754 C43.4419053,124.787546 62.5992985,139.587137 68.3716066,144.139027 C68.8543526,142.54293 69.3402745,140.926208 69.8341364,139.295207 C64.8796381,136.701153 48.8092784,128.063828 42.3192032,121.933294 C34.6032074,114.638212 9.99269009,88.1741055 9.99269009,88.1741055 C9.99269009,88.1741055 24.8006056,98.8041722 36.2737626,104.63643 C46.030313,109.60083 65.5910532,129.030053 71.2172671,134.725865 C72.0191971,132.085801 72.833831,129.407658 73.6691086,126.691438 C70.5137919,124.554319 60.4491733,117.643189 55.0452767,112.762878 C48.5790212,106.929034 39.8165464,98.8041722 32.1005506,94.0111227 C24.3861427,89.2180732 11.0359931,82.1340064 11.0359931,82.1340064 C11.0359931,82.1340064 45.4491122,95.0535039 55.4581515,103.387794 C63.3726449,109.973675 71.4125887,120.202338 74.436103,124.202099 C75.5095776,120.714802 76.6116359,117.165629 77.7359259,113.568859 C73.1180794,110.863745 58.9040686,102.135984 51.2897035,92.9687415 C42.1143538,81.9229916 25.0102189,51.9176451 25.0102189,51.9176451 C25.0102189,51.9176451 36.2737626,66.9219049 45.6587256,76.2985757 C53.9146348,84.5471902 73.9485931,105.691503 78.6490145,110.659076 C79.49382,107.968242 80.3513293,105.250435 81.2231304,102.510416 C75.8954568,98.7549883 58.3578034,86.0591982 51.4945529,76.9236871 C43.3625062,66.0889519 27.5112878,43.3755138 27.5112878,43.3755138 C27.5112878,43.3755138 47.3261049,61.503744 58.5880605,72.1306376 C67.8396332,80.8599849 78.771289,94.3585831 82.385532,98.9072997 C83.2541571,96.227571 84.1211943,93.6303442 84.9898195,91.136245 C82.299781,88.0138612 69.3243947,72.8096926 63.1773233,62.7539668 C56.2950171,51.5035484 45.0314735,26.4975064 45.0314735,26.4975064 C45.0314735,26.4975064 60.2570277,45.877546 69.0163266,59.0032985 C76.3845547,70.0442887 83.8972891,83.8824144 86.1014057,88.0059283 C87.441661,84.2520868 88.7787403,80.7108467 90.1047038,77.3822079 C87.0796015,74.320114 79.012662,65.6843748 73.1879506,55.0447886 C65.8911815,41.7096079 58.7960859,24.8300139 58.7960859,24.8300139 C58.7960859,24.8300139 70.8933192,38.790306 77.9820628,50.6674223 C83.2017538,59.4047025 88.7485687,69.5984605 91.3242726,74.3851637 C92.4072751,71.7419262 93.4823377,69.2351344 94.5462844,66.8632016 C91.9594647,63.2807104 84.7547984,52.9933444 80.694333,44.2084668 C75.6921954,33.3737317 70.0596296,16.7035658 70.0596296,16.7035658 C70.0596296,16.7035658 75.477818,27.3304594 82.9921404,37.3338282 C89.0217013,45.3698413 94.1095899,58.9144502 95.8785998,63.9296205 C97.1648638,61.1594568 98.4193682,58.592375 99.6532288,56.1918838 C97.464992,53.0219027 90.4461195,42.5647729 89.0375811,37.1244 C87.3717898,30.6638579 81.9504254,10.8681352 81.9504254,10.8681352 C81.9504254,10.8681352 89.8744466,26.705348 93.8380452,34.6239544 C96.7011736,40.3467381 99.4515553,49.4425848 100.761639,54.0484181 C101.876401,51.9382706 102.960992,49.9836076 104.01541,48.1653902 C101.236445,44.1434172 92.7216952,31.5459948 92.3739275,27.538301 C91.9562887,22.7468381 86.5381002,4.41076628 86.5381002,4.41076628 C86.5381002,4.41076628 92.1674901,18.5773134 96.5471395,27.538301 C99.6976922,33.9845639 103.485025,41.9142763 105.36837,45.8727862 C106.330686,44.2703433 107.26283,42.7916535 108.155275,41.4271971 C107.051629,38.6522737 102.875241,28.2252889 100.715588,23.3703629 C98.2176947,17.745947 94.8765843,4.82644949 94.8765843,4.82644949 C94.8765843,4.82644949 99.0497963,13.5780089 101.760479,19.8275362 C103.956655,24.8950635 107.932958,35.7044135 109.36214,39.6232589 C110.10849,38.5301073 110.82467,37.5210443 111.507501,36.5928966 C110.330808,34.193992 105.539871,24.2826447 104.261547,18.9961698 C102.805369,12.9528975 101.552453,0.0334 101.552453,0.0334 C101.552453,0.0334 105.308026,10.0367688 107.809095,18.7883282 C109.754371,25.594744 111.823509,32.3852941 112.646083,35.0745423 C113.317798,34.1971652 113.951403,33.4086364 114.543719,32.6946767 C113.759257,30.6575116 111.93308,25.3377185 111.769518,19.6196946 C111.561492,12.3277861 111.355055,2.32600394 111.355055,2.32600394 C111.355055,2.32600394 115.525091,9.40848422 116.152343,18.3694718 C116.574746,24.4508219 115.847451,29.275603 115.336121,31.7538364 C117.492598,29.245458 118.9853,27.8936943 119.591908,27.3812299 C119.280664,26.2119225 118.446975,22.3200488 119.487102,17.1208356 C120.736842,10.8713083 123.034649,4.20292468 123.034649,4.20292468 C123.034649,4.20292468 126.369408,10.2446104 124.700441,14.414135 C123.034649,18.5804866 122.407397,20.8715039 122.407397,20.8715039 C122.407397,20.8715039 124.700441,16.4957242 128.873653,12.7450559 C133.042101,8.99438759 140.345222,7.32689503 140.345222,7.32689503 C140.345222,7.32689503 132.613346,17.7253215 129.078502,20.2463925 C126.180438,22.3184623 123.014006,24.9315548 121.197356,26.4610151 C122.493148,25.8438366 124.703617,24.8855441 127.622324,23.9986474 C132.416436,22.5405831 137.632951,22.7484247 137.632951,22.7484247 C137.632951,22.7484247 133.531199,26.2420675 128.73391,27.0750205 C123.900099,27.9127332 123.747653,27.6081104 120.106414,28.2332218 C119.196501,29.8071063 116.261914,33.40229 114.650114,36.3295248 C116.90187,34.8111705 121.57212,31.9473988 126.787047,30.4591895 C134.086992,28.3744271 146.185813,25.6645534 146.185813,25.6645534 C146.185813,25.6645534 132.62605,32.7486203 126.369408,33.7910014 C121.602291,34.58429 116.476291,36.2248107 114.305522,36.9609825 C113.50518,38.4253932 112.628615,40.0452885 111.710763,41.784177 C114.63741,40.1769744 119.647488,37.6067194 123.660314,36.5008752 C129.707342,34.8349692 130.126569,35.4600806 137.632951,33.5831598 C145.140922,31.7078257 154.316272,27.5398876 154.316272,27.5398876 C154.316272,27.5398876 146.182637,36.5008752 140.969298,37.1244 C135.755959,37.7510979 130.799873,41.0559381 123.707953,41.8888911 C118.82015,42.463232 113.209816,43.8451407 110.203769,44.6479487 C109.341496,46.2964023 108.449051,48.0321177 107.528023,49.8614411 C111.293124,48.5271298 119.180621,45.9045178 125.743744,44.8367514 C134.712656,43.3755138 154.524297,42.1268776 154.524297,42.1268776 C154.524297,42.1268776 135.752783,48.1701499 129.078502,49.2109445 C123.453876,50.0899082 109.963984,52.4491484 105.873347,53.1694544 C104.749057,55.4493657 103.59142,57.8530301 102.421078,60.3391964 C107.104032,58.221116 117.267105,53.7882195 124.28439,51.9208182 C133.669353,49.4187861 153.901809,45.6681178 153.901809,45.6681178 C153.901809,45.6681178 134.296605,55.8809147 124.28439,57.9625039 C116.341313,59.6157173 105.257211,62.3176581 101.010952,63.3616259 C99.7516836,66.0968848 98.4860633,68.9257518 97.225207,71.840294 C101.642968,69.4604283 116.152343,61.7671159 122.825036,59.8378381 C130.749057,57.5452341 152.856918,53.5867242 152.856918,53.5867242 C152.856918,53.5867242 130.958671,64.0073627 123.241087,66.0889519 C116.557278,67.8928901 100.183614,73.4474966 95.9167113,74.9039744 C94.7844815,77.5932227 93.6649554,80.3443474 92.572425,83.1383097 C98.2065788,81.3200923 113.770373,76.1827556 119.698303,72.9667638 C126.998248,69.0050807 127.622324,71.0882564 135.755959,68.1737143 C143.888006,65.2559989 155.5676,59.8378381 155.5676,59.8378381 C155.5676,59.8378381 144.932897,69.8396203 138.674667,71.5071128 C132.416436,73.1730188 127.574685,79.0544602 120.114354,81.2994668 C108.310897,84.8533996 96.1342646,86.1543928 91.2591654,86.55897 C90.2126864,89.3243739 89.199555,92.1215094 88.2292991,94.9487898 C93.1980892,92.9290771 111.420162,85.5943311 118.238949,83.8014989 C126.16297,81.7183232 152.231254,77.3409569 152.231254,77.3409569 C152.231254,77.3409569 138.049002,81.9245782 131.582747,84.6344519 C125.118079,87.3427391 121.575296,92.9703281 111.982307,94.6362341 C104.512448,95.9340542 92.2437131,97.48414 87.1717043,98.1076648 C86.6683146,99.6418849 86.1728648,101.180865 85.6980587,102.724604 C85.2264286,104.263584 84.7405066,105.867614 84.2418808,107.517654 C88.1499001,106.078628 96.50744,103.186298 104.890388,101.512459 C116.357193,99.221442 122.196196,101.928143 131.582747,99.0136004 C140.969298,96.0942985 153.274557,89.4259148 153.274557,89.4259148 C153.274557,89.4259148 142.012601,101.096776 133.462915,102.346999 C124.910054,103.598808 116.152343,103.38938 110.93424,105.888239 C105.720901,108.388685 102.386143,110.473447 96.1263247,110.473447 C91.772083,110.473447 86.4062979,110.067283 83.5479335,109.82295 C82.3998238,113.664054 81.1945468,117.760596 79.9511583,122.036421 C84.3625673,120.005602 100.774343,112.593114 110.102139,110.264019 C120.948043,107.554145 148.267655,106.514937 148.267655,106.514937 C148.267655,106.514937 129.078502,111.307987 120.114354,114.639798 C111.143854,117.973197 104.05511,122.141135 96.3375261,122.767833 C90.644617,123.229527 82.9222693,124.029162 79.255623,124.416287 C78.4600449,127.161065 77.650175,129.966133 76.8355411,132.817213 C82.625317,130.738797 98.5067071,125.084236 106.765792,122.558405 C116.984445,119.432848 146.39225,113.180148 146.39225,113.180148 C146.39225,113.180148 125.743744,119.848531 120.530405,123.185103 C115.317066,126.516915 105.516052,131.936662 96.1263247,133.602568 C88.9994695,134.870243 79.8336478,135.895172 75.8335256,136.312442 C74.8839134,139.641081 73.9295373,143.017317 72.9719853,146.401486 C77.4961409,144.402399 90.408008,138.922361 100.715588,136.726539 C113.438485,134.018251 143.888006,134.852791 143.888006,134.852791 C143.888006,134.852791 129.078502,135.687331 119.487102,139.645841 C109.895701,143.602764 95.2942231,149.436608 86.9509751,149.853878 C81.340641,150.136288 75.2634407,150.226723 71.8842188,150.256868 C71.2934902,152.365429 70.6995856,154.472404 70.1104449,156.573032 C74.3821117,155.448149 84.389563,152.947703 94.0444827,151.522957 C106.765792,149.646036 145.974612,145.895368 145.974612,145.895368 C145.974612,145.895368 118.83603,154.713563 107.393044,157.981912 C95.9484709,161.250261 89.8982663,161.115402 69.059202,160.3237 C68.338259,162.916167 67.6220799,165.489595 66.9154287,168.028119 C69.2465837,166.717606 74.4948583,165.200838 86.3268988,164.858138 C108.015533,164.233026 133.880554,169.026076 133.880554,169.026076 C133.880554,169.026076 117.82131,169.443345 109.478062,170.90141 C102.159062,172.181778 72.8560627,172.175431 65.768907,172.157979 C65.1607106,174.361735 64.5604541,176.528999 63.9760774,178.655012 C66.9503643,177.220747 73.478551,174.772658 82.9921404,175.069348 C96.3375261,175.483445 114.486552,190.697133 114.486552,190.697133 C114.486552,190.697133 95.9198873,179.029444 88.2038915,179.654556 C80.4878956,180.279667 80.0686688,182.987954 74.439279,182.778526 C70.6360664,182.637321 65.8784777,181.928121 63.1947911,181.480706 C62.5119596,183.95894 62.2610587,185.026706 61.6242787,187.349455 C65.6593364,186.216639 75.480994,186.579965 82.9730846,189.672204 C92.5660731,193.633887 96.3375261,199.65812 96.3375261,199.65812 C96.3375261,199.65812 89.0375811,196.741991 80.9039464,196.115293 C74.3979915,195.617108 64.5572781,191.517393 60.8842799,189.895911 C56.2124421,206.927817 52.9586707,219.0334 52.9586707,219.0334 L48.5790212,213.407398 C48.5790212,213.407398 51.4532654,202.588528 56.4903387,184.84425 C52.4870405,185.248827 42.0381308,186.000864 33.1438536,184.027162 C21.8818979,181.526717 3.53119861,172.150046 3.53119861,172.150046 C3.53119861,172.150046 18.9616023,177.777635 25.6390591,178.816843 C32.310164,179.857638 37.9443178,178.191732 45.6587256,179.234113" id="Fill-1" fill="#BBCA83"></path>
    </g>
</svg>