<svg width="264px" height="288px" viewBox="0 0 264 288" version="1.1" xmlns="http://www.w3.org/2000/svg" xmlns:xlink="http://www.w3.org/1999/xlink"><defs><polygon id="path-1" points="0 0 264 0 264 288 0 288"></polygon></defs><g id="Leave-2" stroke="none" stroke-width="1" fill="none" fill-rule="evenodd"><g id="img---leaf"><mask id="mask-2" fill="white"><use xlink:href="#path-1"></use></mask><g id="Clip-2"></g><path d="M166.821984,49.2078713 C170.710356,48.639069 175.789737,48.3926753 181.713509,49.2734015 C195.67464,51.3572626 193.162314,53.8080929 182.232133,52.9142606 C175.802768,52.3873977 166.303361,55.0164702 159.480468,57.674376 C158.378068,59.1579802 157.29391,60.7411903 156.233208,62.3873095 C164.088136,64.3270041 179.777142,68.7280138 193.089342,75.7974141 C211.699839,85.6741292 211.181215,91.393607 191.020061,80.9952713 C176.51164,73.51172 160.666265,69.5274825 152.918189,67.8839845 C152.501206,68.6231654 152.084222,69.3544827 151.677663,70.1224969 C149.936757,73.399008 148.14894,76.7515342 146.329849,80.1826966 C152.847823,85.446084 169.360372,99.023946 184.301413,113.233519 C203.427928,131.432573 191.538684,125.713095 180.678869,114.793139 C172.274044,106.342361 151.179889,93.5325134 142.071405,88.1721412 C136.796563,98.082932 131.287168,108.436707 125.717831,118.897952 C131.039584,124.557142 142.634333,137.408929 152.245803,151.710244 C165.172293,170.952539 157.932416,166.273681 145.52455,150.674867 C136.280546,139.049806 126.471008,129.744514 122.064013,125.755034 C114.055323,140.785046 106.002328,155.901557 98.4106212,170.137343 C102.231233,175.605185 114.454063,193.363875 118.342435,206.83951 C121.954555,219.358403 119.134704,217.838102 113.745191,205.243193 C109.0854,194.349449 98.1421881,179.765043 95.2702139,176.021957 C73.6808907,216.522255 71.1659587,219.581206 71.1659587,219.581206 C71.1659587,219.581206 97.4254976,163.736351 105.746926,145.71554 C102.478817,143.7208 96.4012818,141.14153 88.702723,140.732622 C77.3659828,140.127122 74.5200701,138.058989 87.0504257,137.456111 C96.5550444,137.00002 105.022417,138.960684 108.558958,139.933153 C114.662555,126.612169 120.703604,113.157504 126.296396,100.274263 C123.150776,98.5835829 116.007327,95.5141473 103.761041,94.2402398 C86.4510119,92.4394693 84.0663872,88.2376715 103.761041,89.4355639 C117.06021,90.2481387 125.444186,91.8785306 129.496745,92.8509991 C132.478177,85.8785835 135.300634,79.1289706 137.898963,72.7017665 C130.812849,67.0399553 111.931313,52.555155 97.1909443,46.81995 C78.6925117,39.616868 76.9046948,37.8134763 97.7929643,43.8186658 C114.042292,48.4870388 133.538879,59.33098 141.401625,63.9180955 C142.386749,61.3833865 143.327568,58.9273138 144.21887,56.5393925 C141.250468,52.127898 135.681132,45.0113159 127.630743,39.616868 C115.095175,31.2106511 116.294003,27.6117313 131.214196,37.2158407 C138.805902,42.1043952 143.450057,46.6731623 146.189117,49.9916127 C149.076728,35.0087828 139.548654,21.2186029 134.198234,15.6039735 C99.2810744,-21.0090721 34.8310549,12.3038715 13.6430784,58.8224654 C-2.70788891,94.7277846 73.9441116,92.0384243 63.8635344,108.696207 C53.7829571,125.353989 -9.28841051,73.0530084 1.16484578,148.567415 C5.90803363,182.829236 46.1417336,156.585693 52.3417577,170.978751 C61.7030384,192.705951 5.90282134,167.309058 11.2558476,201.68097 C13.7447182,217.680829 17.1665894,229.879936 24.3282818,251.489182 C31.4873681,273.101049 39.4204801,288 39.4204801,288 C39.4204801,288 57.8042422,273.709169 78.095704,274.907062 C98.389772,276.110197 126.846293,287.701182 140.632811,268.3986 C164.724036,234.671505 126.747259,198.865792 144.912105,196.994249 C158.959238,195.547342 171.562566,230.204965 170.001484,248.503625 C168.26579,268.87566 214.30338,254.873162 214.162648,223.292838 C213.972399,180.923617 166.686465,157.361571 168.909508,143.550421 C171.817969,125.498156 202.226494,158.467721 212.971638,176.467562 C223.714177,194.48051 264,165.817591 264,118.997558 C264,60.222191 207.222478,9.52276889 166.821984,49.2078713" id="Fill-1" fill="#BBCA83" mask="url(#mask-2)"></path></g></g></svg>