<svg width="183px" height="144px" viewBox="0 0 183 144" version="1.1" xmlns="http://www.w3.org/2000/svg" xmlns:xlink="http://www.w3.org/1999/xlink"><defs><polygon id="path-1" points="0 0 183 0 183 144 0 144"></polygon></defs><g id="O-Talk-1" stroke="none" stroke-width="1" fill="none" fill-rule="evenodd"><g id="img---hablar"><mask id="mask-2" fill="white"><use xlink:href="#path-1"></use></mask><g id="Clip-2"></g><path d="M69.5740188,0.335218299 C50.1786408,-1.05739757 21.0879971,1.26525198 7.23253999,19.3578967 C-8.00264661,40.23415 3.07881096,95.9046999 19.6985739,111.215359 C24.6245637,115.750288 32.1161396,118.44138 40.7774159,120.001175 C41.1473902,127.865072 49.3297122,133.836681 49.3297122,140 C49.3297122,140 55.1330372,137.446729 71.5967605,121.914804 C83.9416238,121.758987 95.7775704,120.957178 104.206199,120.957178 C131.917113,120.957178 167.93387,118.171946 179.013712,86.1628811 C190.095169,56.9341788 177.62752,17.9669039 147.1523,9.61607792 L69.5740188,0.335218299 Z" id="Fill-1" fill="#FFF3E0" mask="url(#mask-2)"></path></g></g></svg>