<svg width="282" height="204" xmlns="http://www.w3.org/2000/svg"><path d="M205.216 0c-10.643 0-19.639 3.924-26.988 11.772-7.349 7.848-11.023 16.582-11.023 26.203 0 7.595 2.407 13.924 7.222 18.987 4.815 5.063 11.784 10.633 20.906 16.709 9.123 6.076 16.219 11.772 21.287 17.088 5.068 5.317 7.602 12.279 7.602 20.887 0 15.19-5.321 28.227-15.965 39.113-10.643 10.887-26.861 20.38-48.655 28.482-5.068 2.025-7.602 5.57-7.602 10.632 0 4.557 1.774 8.355 5.322 11.393 3.547 3.038 7.602 3.544 12.163 1.519 31.423-9.114 58.032-22.912 79.825-41.393C271.103 142.912 282 119.241 282 90.38c0-14.177-3.421-28.355-10.263-42.532-6.842-14.177-16.092-25.696-27.749-34.557C232.331 4.431 219.408 0 205.216 0zm-152 0C42.573 0 33.577 3.924 26.228 11.772 18.88 19.62 15.205 28.354 15.205 37.975c0 7.595 2.407 13.924 7.222 18.987 4.815 5.063 11.784 10.633 20.906 16.709 9.123 6.076 16.219 11.772 21.287 17.088 5.068 5.317 7.602 12.279 7.602 20.887 0 15.19-5.321 28.227-15.965 39.113-10.643 10.887-26.861 20.38-48.655 28.482C2.534 181.266 0 184.81 0 189.873c0 4.557 1.774 8.355 5.322 11.393 3.547 3.038 7.602 3.544 12.163 1.519 31.423-9.114 58.032-22.912 79.825-41.393C119.103 142.912 130 119.241 130 90.38c0-14.177-3.421-28.355-10.263-42.532-6.842-14.177-16.092-25.696-27.749-34.557C80.331 4.431 67.408 0 53.216 0z" fill="#FFF4DC" fill-rule="nonzero"/></svg>