<svg width="183" height="204" xmlns="http://www.w3.org/2000/svg" xmlns:xlink="http://www.w3.org/1999/xlink"><defs><path id="prefix__a" d="M.811.24h94.842V76H.811z"/></defs><g fill="none" fill-rule="evenodd"><path d="M53.34 81.556s-7.536-16.433-20.558-14.378C19.761 69.23 2.625 85.663 15.65 99.355c13.019 13.694 43.176 5.477 37.692-17.8M71.822 40.65s12.605-15.524 4.407-27.596C68.031.979 43.723-8.257 36.415 11.441c-7.309 19.702 15.083 45.985 35.407 29.21" fill="#F4E8D3"/><path d="M102.236 63.359s15.568-7.229 13.59-19.642c-1.98-12.41-17.606-28.71-30.564-16.26-12.955 12.449-5.09 41.185 16.974 35.902M127.823 47.386s15.286 7.223 23.236-2.345c7.947-9.57 10.087-32.104-7.408-33.944-17.498-1.837-33.81 22.83-15.828 36.289" fill="#EFF3DE"/><path d="M130.824 82.386s15.283 7.223 23.233-2.345c7.951-9.568 10.088-32.104-7.408-33.944-17.496-1.835-33.809 22.83-15.825 36.289" fill="#F4E8D3"/><path d="M168.9 93.075s-9.187-9.226-18.918-4.938c-9.73 4.285-19.766 19.046-6.861 25.22 12.908 6.176 34.742-6.046 25.779-20.282" fill="#EFF3DE"/><path d="M87.87 149S93.357 70.914 33 84.612M54 18s43.453 65.814 33.949 133c0 0 20.366-72.67 8.146-113.803M137.234 30s-35.064 37.124-29.67 121c0 0 5.394-64.627 38.436-90.064M164 97.546S131.522 87.456 113 154" stroke="#EFCB92" stroke-linecap="round" stroke-linejoin="round"/><g transform="translate(56 128)"><mask id="prefix__b" fill="#fff"><use xlink:href="#prefix__a"/></mask><path d="M2.312.24s-13.649 68.308 41.376 75.332c55.028 7.02 51.933-74.549 51.933-74.549L2.312.24z" fill="#BBCA83" mask="url(#prefix__b)"/></g></g></svg>