<?xml version="1.0" encoding="UTF-8"?>
<svg width="280px" height="507px" viewBox="0 0 280 507" version="1.1" xmlns="http://www.w3.org/2000/svg" xmlns:xlink="http://www.w3.org/1999/xlink">
    <title>Plant 1</title>
    <defs>
        <polygon id="path-1" points="0.857281507 0.0574741379 59.9483595 0.0574741379 59.9483595 112.61143 0.857281507 112.61143"></polygon>
        <polygon id="path-3" points="0.166011498 0.475708499 102.454454 0.475708499 102.454454 124.278268 0.166011498 124.278268"></polygon>
        <polygon id="path-5" points="0.499487565 0.936626923 90.9868784 0.936626923 90.9868784 133 0.499487565 133"></polygon>
    </defs>
    <g id="Plant-1" stroke="none" stroke-width="1" fill="none" fill-rule="evenodd">
        <g id="Group-32" transform="translate(-0.437047, 0.000000)">
            <path d="M206.437047,374.5 C206.437047,381.403621 186.735829,387 162.438358,387 C138.135644,387 118.437047,381.403621 118.437047,374.5 C118.437047,367.593717 138.135644,362 162.438358,362 C186.735829,362 206.437047,367.593717 206.437047,374.5" id="Fill-1" fill="#DB976A"></path>
            <path d="M128.97578,184.997246 C128.97578,184.997246 162.004168,186.495192 124.590077,119.618563 C87.1759861,52.7419342 11.6646173,32.1066992 1.39378151,60.2214053 C-8.87705427,88.3309814 66.370763,100.017014 91.9352673,141.284919 C117.499772,182.555389 128.97578,184.997246 128.97578,184.997246" id="Fill-3" fill="#EFF3DE"></path>
            <path d="M119.024677,278.690366 C119.024677,278.690366 146.614357,274.922098 119.527291,221.397196 C85.0092605,153.18379 49.5169305,145.515621 36.6912345,172.471648 C22.4221322,202.460356 58.2933564,200.349093 82.0038824,242.584674 C105.709253,284.815094 119.024677,278.690366 119.024677,278.690366" id="Fill-5" fill="#EFF3DE"></path>
            <path d="M182.80414,349.601389 C182.80414,349.601389 173.902336,342.698102 177.149908,323.340272 C180.392321,303.979886 190.060232,263.940308 211.598935,269.529901 C231.682808,274.741231 222.427614,293.258194 211.557663,316.419094 C204.363478,331.746385 192.544277,353.192325 182.80414,349.601389" id="Fill-7" fill="#EFF3DE"></path>
            <g id="Group-11" transform="translate(97.437047, 0.000000)">
                <mask id="mask-2" fill="white">
                    <use xlink:href="#path-1"></use>
                </mask>
                <g id="Clip-10"></g>
                <path d="M22.010087,88.5402157 C9.11530435,64.850421 -14.2403478,13.4842165 14.7605217,2.29243437 C41.7996522,-8.13650921 47.2205217,19.4563019 54.7909565,53.4000053 C59.8022609,75.8697808 64.8422609,108.713638 50.817913,112.61143 C50.817913,112.61143 34.9074783,112.23001 22.010087,88.5402157 Z" id="Fill-9" fill="#EFF3DE" mask="url(#mask-2)"></path>
            </g>
            <path d="M180.556723,165.792307 C180.556723,165.792307 162.430497,144.246308 177.287515,112.716021 C192.139425,81.1831364 206.125505,83.1295787 215.072408,87.3265137 C224.019311,91.52085 228.869487,116.452983 213.442912,137.975593 C198.016337,159.500802 196.785276,167.429501 180.556723,165.792307" id="Fill-12" fill="#EFF3DE"></path>
            <g id="Group-16" transform="translate(176.437047, 114.000000)">
                <mask id="mask-4" fill="white">
                    <use xlink:href="#path-3"></use>
                </mask>
                <g id="Clip-15"></g>
                <path d="M9.20909723,122.501276 C9.20909723,122.501276 -5.27777686,111.103316 2.4203993,89.4885204 C9.9657002,68.2971939 63.1947924,-7.2869898 90.6009214,1.12627551 C118.00705,9.53954082 91.0414094,41.3558673 78.1713855,58.6390306 C60.2746159,82.6696429 44.6398818,134.501276 9.20909723,122.501276" id="Fill-14" fill="#EFF3DE" mask="url(#mask-4)"></path>
            </g>
            <path d="M73.4370473,192 C146.560194,271.58118 148.97984,389.005429 145.474911,493" id="Stroke-17" stroke="#EFCB92" stroke-linecap="round" stroke-linejoin="round"></path>
            <path d="M52.4370473,80 C52.4370473,80 186.176289,106.826683 141.186992,455" id="Stroke-19" stroke="#EFCB92" stroke-linecap="round" stroke-linejoin="round"></path>
            <path d="M130.437047,37 C130.437047,37 177.719493,112.323884 147.143848,455" id="Stroke-21" stroke="#EFCB92" stroke-linecap="round" stroke-linejoin="round"></path>
            <path d="M239.437047,158 C239.437047,158 158.869441,200.708667 158.437047,456" id="Stroke-23" stroke="#EFCB92" stroke-linecap="round" stroke-linejoin="round"></path>
            <path d="M201.437047,110 C201.437047,110 178.909324,153.10421 170.501992,202.98447 C163.749964,243.04742 152.437047,459 152.437047,459" id="Stroke-25" stroke="#EFCB92" stroke-linecap="round" stroke-linejoin="round"></path>
            <path d="M209.437047,286 C209.437047,286 165.185888,358.223232 166.46422,470" id="Stroke-27" stroke="#EFCB92" stroke-linecap="round" stroke-linejoin="round"></path>
            <g id="Group-31" transform="translate(117.437047, 374.000000)">
                <mask id="mask-6" fill="white">
                    <use xlink:href="#path-5"></use>
                </mask>
                <g id="Clip-30"></g>
                <path d="M89.3883319,0.936626923 C81.5610411,8.94476154 62.7053248,11.6124346 45.7444738,13.0549731 C25.4405021,12.0574731 13.3200766,9.3898 2.09803404,0.936626923 C2.09803404,0.936626923 -7.32982411,67.6565885 19.6061759,125.035858 C19.6061759,125.035858 29.7388,133.616915 45.7444738,132.964704 C61.7501475,133.616915 71.8801901,125.035858 71.8801901,125.035858 C98.8161901,67.6565885 89.3883319,0.936626923 89.3883319,0.936626923" id="Fill-29" fill="#FFB680" mask="url(#mask-6)"></path>
            </g>
        </g>
    </g>
</svg>