<svg width="280" height="507" xmlns="http://www.w3.org/2000/svg" xmlns:xlink="http://www.w3.org/1999/xlink"><defs><path id="prefix__a" d="M.857.057h59.091v111.558H.857z"/><path id="prefix__c" d="M.166.476h102.288v123.802H.166z"/><path id="prefix__e" d="M.499.937h90.488V133H.499z"/></defs><g fill="none" fill-rule="evenodd"><path d="M206 374.5c0 6.904-19.477 12.5-43.499 12.5-24.026 0-43.501-5.596-43.501-12.5 0-6.906 19.475-12.5 43.501-12.5 24.022 0 43.499 5.594 43.499 12.5" fill="#DB976A"/><path d="M129.539 184.997s33.028 1.498-4.386-65.378C87.739 52.742 12.228 32.107 1.957 60.22c-10.271 28.11 64.977 39.796 90.541 81.064 25.565 41.27 37.04 43.712 37.04 43.712M119.588 278.69s27.59-3.768.502-57.293c-34.518-68.213-70.01-75.881-82.836-48.925-14.269 29.988 21.602 27.877 45.313 70.113 23.705 42.23 37.02 36.105 37.02 36.105M184.232 350.601s-8.713-6.903-5.534-26.26c3.173-19.361 12.635-59.4 33.716-53.811 19.656 5.211 10.598 23.728-.04 46.89-7.042 15.326-18.61 36.772-28.142 33.181" fill="#FBF2DF"/><g transform="translate(98)"><mask id="prefix__b" fill="#fff"><use xlink:href="#prefix__a"/></mask><path d="M50.818 111.615s-15.91-.378-28.808-23.858C9.115 64.277-14.24 13.365 14.76 2.272 41.8-8.065 47.22 19.284 54.792 52.927c5.011 22.271 10.051 54.825-3.973 58.688" fill="#FBF2DF" mask="url(#prefix__b)"/></g><path d="M180.12 165.792s-18.127-21.546-3.27-53.076c14.852-31.533 28.838-29.586 37.785-25.39 8.947 4.195 13.797 29.127-1.63 50.65-15.426 21.525-16.657 29.454-32.885 27.816" fill="#FBF2DF"/><g transform="translate(177 113)"><mask id="prefix__d" fill="#fff"><use xlink:href="#prefix__c"/></mask><path d="M9.21 122.501S-5.279 111.103 2.42 89.49C9.966 68.297 63.195-7.287 90.6 1.126c27.407 8.414.441 40.23-12.429 57.513-17.896 24.03-33.531 75.862-68.962 63.862" fill="#FBF2DF" mask="url(#prefix__d)"/></g><path d="M74 193c73.123 79.581 75.543 197.005 72.038 301M53 80s133.74 26.827 88.75 375M131 37s47.282 75.324 16.707 418M241 158s-80.568 42.709-81 298" stroke="#EFCB92" stroke-linecap="round" stroke-linejoin="round"/><path d="M203 110s-22.987 43.104-31.566 92.984C164.544 243.047 153 459 153 459M211 285s-44.251 72.223-42.973 184" stroke="#EFCB92" stroke-linecap="round" stroke-linejoin="round"/><g transform="translate(118 374)"><mask id="prefix__f" fill="#fff"><use xlink:href="#prefix__e"/></mask><path d="M89.388.937c-7.827 8.008-26.683 10.675-43.644 12.118C25.441 12.057 13.32 9.39 2.098.937c0 0-9.428 66.72 17.508 124.099 0 0 10.133 8.58 26.138 7.929 16.006.652 26.136-7.93 26.136-7.93C98.816 67.658 89.388.938 89.388.938" fill="#FFB680" mask="url(#prefix__f)"/></g></g></svg>