<!-- <?xml version="1.0" encoding="UTF-8"?> -->
<svg width="796px" height="425px" viewBox="0 0 796 425" version="1.1" xmlns="http://www.w3.org/2000/svg" xmlns:xlink="http://www.w3.org/1999/xlink">
    <title>Search</title>
    <defs>
        <polygon id="path-1" points="0.648291082 0.578388889 380.315135 0.578388889 380.315135 358.143729 0.648291082 358.143729"></polygon>
        <filter id="filter-3">
            <feColorMatrix in="SourceGraphic" type="matrix" values="0 0 0 0 0.952941 0 0 0 0 0.600000 0 0 0 0 0.050980 0 0 0 1.000000 0"></feColorMatrix>
        </filter>
        <polygon id="path-4" points="0 0.0831635831 143.917377 0.0831635831 143.917377 143.914286 0 143.914286"></polygon>
        <filter id="filter-6">
            <feColorMatrix in="SourceGraphic" type="matrix" values="0 0 0 0 1.000000 0 0 0 0 0.857928 0 0 0 0 0.636928 0 0 0 1.000000 0"></feColorMatrix>
        </filter>
    </defs>
    <g id="Search" stroke="none" stroke-width="1" fill="none" fill-rule="evenodd">
        <g id="Group-24">
            <path d="M694,399.998872 C694,406.628077 646.991386,412 589.002912,412 C531.009779,412 484,406.628077 484,399.998872 C484,393.370795 531.009779,388 589.002912,388 C646.991386,388 694,393.370795 694,399.998872" id="Fill-1" fill="#FFF3E0"></path>
            <g id="Group-5" transform="translate(415.000000, 0.000000)">
                <mask id="mask-2" fill="white">
                    <use xlink:href="#path-1"></use>
                </mask>
                <g id="Clip-4"></g>
                <path d="M195.532706,357.745612 C111.639077,363.141171 -24.6303644,313.285925 26.1524945,232.989592 C65.486654,170.798122 33.4031816,126.650507 13.0430558,107.873399 C-22.7931497,74.8219353 14.6254914,-9.31311699 184.047777,1.53666078 C338.755982,11.4420105 396.136218,114.978314 376.651458,208.048478 C359.169869,291.547654 291.819353,351.552275 195.532706,357.745612" id="Fill-3" fill="#FFF3E0" mask="url(#mask-2)"></path>
            </g>
            <polygon id="Fill-6" fill="#6A949E" points="486 291.933519 496.066199 302 527 271.066481 516.93265 261"></polygon>
            <g filter="url(#filter-3)" id="Group-10">
                <g transform="translate(364.000000, 281.000000)">
                    <mask id="mask-5" fill="white">
                        <use xlink:href="#path-4"></use>
                    </mask>
                    <g id="Clip-9"></g>
                    <polygon id="Fill-8" fill="#41A5B5" mask="url(#mask-5)" points="0 119.027141 24.9025574 143.914876 143.917377 24.9720776 119.012459 0.0831635831"></polygon>
                </g>
            </g>
            <polygon id="Fill-11" fill="#FFDBA2" points="472 291.497885 497.502115 317 506 308.499698 480.497885 283"></polygon>
            <path d="M605.001165,287.619425 C545.013529,287.619425 496.380575,238.987636 496.380575,179 C496.380575,119.011199 545.013529,70.3794098 605.001165,70.3794098 C664.991132,70.3794098 713.619425,119.011199 713.619425,179 C713.619425,238.987636 664.991132,287.619425 605.001165,287.619425 M605.001165,46 C531.545942,46 472,105.547107 472,179 C472,252.452893 531.545942,312 605.001165,312 C678.456389,312 738,252.452893 738,179 C738,105.547107 678.456389,46 605.001165,46" id="Fill-13" fill="#F3990D"></path>
            <g filter="url(#filter-6)" id="Group-19">
                <g transform="translate(635.000000, 95.000000)">
                    <path d="M21.1833,62.9655548 C12.434175,46.7456918 13.124925,29.1029521 22.7268,23.5511712 C32.32305,18.0040479 47.203425,26.6472671 55.951425,42.8659658 C64.703925,59.0811712 64.00755,76.7204178 54.410175,82.2698699 C44.8083,87.8251438 29.93355,79.1795959 21.1833,62.9655548" id="Fill-15" fill="#E1FFF5"></path>
                    <path d="M2.7351,17.664863 C-0.879525,12.9863699 -0.3249,6.31328767 3.973725,2.75609589 C8.266725,-0.794109589 14.6781,0.12109589 18.28935,4.79726027 C21.903975,9.48041096 21.350475,16.1511644 17.05635,19.7025342 C12.757725,23.2585616 6.347475,22.3468493 2.7351,17.664863" id="Fill-17" fill="#E1FFF5"></path>
                </g>
            </g>
            <path d="M398.378461,149.462254 C394.336536,172.497994 423.884596,191.185709 429.214862,165.90379 C435.559973,135.786722 401.45442,131.93484 398.378461,149.462254 Z" id="Fill-20" fill="#FFF3E0"></path>
            <path d="M421.436104,193.392751 C409.208718,196.882652 416.925106,209.996324 423.877071,207.740876 C433.012941,204.777284 431.701696,190.46417 421.436104,193.392751" id="Fill-22" fill="#FFF3E0"></path>
            <path d="M55.2654774,257.410707 C41.7502935,335.377827 140.551619,398.628553 158.374695,313.058981 C179.59116,211.124289 65.5507153,198.087151 55.2654774,257.410707 Z" id="Fill-20" fill="#FFF3E0"></path>
            <path d="M134.439619,178.576035 C116.50612,183.694557 127.823489,202.927942 138.019705,199.619952 C151.41898,195.27335 149.495821,174.280783 134.439619,178.576035" id="Fill-22" fill="#FFF3E0"></path>
            <path d="M99.436104,193.392751 C87.2087181,196.882652 94.9251062,209.996324 101.877071,207.740876 C111.012941,204.777284 109.701696,190.46417 99.436104,193.392751" id="Fill-22" fill="#FFF3E0"></path>
            <path d="M13.7303553,317.837869 C-12.3547348,325.282992 4.10689328,353.258825 18.9377523,348.447203 C38.427608,342.124872 35.6302857,311.59023 13.7303553,317.837869" id="Fill-22" fill="#FFF3E0"></path>
        </g>
    </g>
</svg>
