<?xml version="1.0" encoding="UTF-8"?>
<svg width="282px" height="204px" viewBox="0 0 282 204" version="1.1" xmlns="http://www.w3.org/2000/svg" xmlns:xlink="http://www.w3.org/1999/xlink">
    <title>Talk 2</title>
    <g id="Talk-2" stroke="none" stroke-width="1" fill="none" fill-rule="evenodd">
        <path d="M76.7836257,204 C87.4269006,204 96.4230019,200.075949 103.77193,192.227848 C111.120858,184.379747 114.795322,175.64557 114.795322,166.025316 C114.795322,158.43038 112.387914,152.101266 107.573099,147.037975 C102.758285,141.974684 95.7894737,136.405063 86.6666667,130.329114 C77.5438596,124.253165 70.4483431,118.556962 65.380117,113.240506 C60.3118908,107.924051 57.7777778,100.962025 57.7777778,92.3544304 C57.7777778,77.164557 63.0994152,64.1265823 73.7426901,53.2405063 C84.3859649,42.3544304 100.604288,32.8607595 122.397661,24.7594937 C127.465887,22.7341772 130,19.1898734 130,14.1265823 C130,9.56962025 128.226121,5.7721519 124.678363,2.73417722 C121.130604,-0.303797468 117.076023,-0.810126582 112.51462,1.21518987 C81.0916179,10.3291139 54.4834308,24.1265823 32.6900585,42.6075949 C10.8966862,61.0886076 0,84.7594937 0,113.620253 C0,127.797468 3.42105263,141.974684 10.2631579,156.151899 C17.1052632,170.329114 26.3547758,181.848101 38.0116959,190.708861 C49.668616,199.56962 62.5925926,204 76.7836257,204 Z M228.783626,204 C239.426901,204 248.423002,200.075949 255.77193,192.227848 C263.120858,184.379747 266.795322,175.64557 266.795322,166.025316 C266.795322,158.43038 264.387914,152.101266 259.573099,147.037975 C254.758285,141.974684 247.789474,136.405063 238.666667,130.329114 C229.54386,124.253165 222.448343,118.556962 217.380117,113.240506 C212.311891,107.924051 209.777778,100.962025 209.777778,92.3544304 C209.777778,77.164557 215.099415,64.1265823 225.74269,53.2405063 C236.385965,42.3544304 252.604288,32.8607595 274.397661,24.7594937 C279.465887,22.7341772 282,19.1898734 282,14.1265823 C282,9.56962025 280.226121,5.7721519 276.678363,2.73417722 C273.130604,-0.303797468 269.076023,-0.810126582 264.51462,1.21518987 C233.091618,10.3291139 206.483431,24.1265823 184.690058,42.6075949 C162.896686,61.0886076 152,84.7594937 152,113.620253 C152,127.797468 155.421053,141.974684 162.263158,156.151899 C169.105263,170.329114 178.354776,181.848101 190.011696,190.708861 C201.668616,199.56962 214.592593,204 228.783626,204 Z" id="“" fill="#EFF3DE" transform="translate(141.000000, 102.000000) rotate(180.000000) translate(-141.000000, -102.000000) "></path>
        <g id="Group-8" transform="translate(192.000000, 107.000000)"></g>
    </g>
</svg>